<svg width="366" height="96" viewBox="0 0 366 96" fill="none" xmlns="http://www.w3.org/2000/svg">
<g clip-path="url(#clip0_2_2)">
<path d="M29.032 84.824V40.664H35.048L35.432 43.672C36.7973 42.4347 38.2907 41.5173 39.912 40.92C41.5333 40.3227 43.4533 40.024 45.672 40.024C50.024 40.024 53.416 41.2187 55.848 43.608C58.28 45.9547 59.496 49.8587 59.496 55.32C59.496 60.7813 58.2373 64.8773 55.72 67.608C53.2027 70.296 49.768 71.64 45.416 71.64C41.7467 71.64 38.6107 70.7867 36.008 69.08V84.824H29.032ZM43.624 66.392C49.512 66.392 52.456 62.68 52.456 55.256C52.456 51.672 51.7947 49.1333 50.472 47.64C49.1493 46.104 46.9307 45.336 43.816 45.336C40.7013 45.336 38.0987 46.4027 36.008 48.536V63.704C36.9893 64.5147 38.0773 65.176 39.272 65.688C40.5093 66.1573 41.96 66.392 43.624 66.392ZM80.81 71.64C75.3487 71.64 71.338 70.2747 68.778 67.544C66.2607 64.8133 65.002 60.9093 65.002 55.832C65.002 50.7547 66.282 46.8507 68.842 44.12C71.402 41.3893 75.3913 40.024 80.81 40.024C86.2713 40.024 90.282 41.3893 92.842 44.12C95.402 46.8507 96.682 50.7547 96.682 55.832C96.682 60.9093 95.402 64.8133 92.842 67.544C90.3247 70.2747 86.314 71.64 80.81 71.64ZM80.81 65.752C84.01 65.752 86.2713 64.984 87.594 63.448C88.9593 61.8693 89.642 59.3307 89.642 55.832C89.642 52.3333 88.9593 49.816 87.594 48.28C86.2713 46.744 84.01 45.976 80.81 45.976C77.6527 45.976 75.3913 46.744 74.026 48.28C72.7033 49.816 72.042 52.3333 72.042 55.832C72.042 59.3307 72.7033 61.8693 74.026 63.448C75.3913 64.984 77.6527 65.752 80.81 65.752ZM104.78 34.328V28.568H112.396V34.328H104.78ZM105.356 71V45.976H100.748L101.388 40.664H112.332V71H105.356ZM120.47 71V40.664H126.87L127.19 43.864C128.555 42.7973 130.176 41.9013 132.054 41.176C133.974 40.408 136.086 40.024 138.39 40.024C142.315 40.024 145.174 40.9413 146.966 42.776C148.758 44.6107 149.654 47.4693 149.654 51.352V71H142.742V51.672C142.742 49.3253 142.251 47.6827 141.27 46.744C140.331 45.8053 138.539 45.336 135.894 45.336C134.315 45.336 132.758 45.656 131.222 46.296C129.728 46.936 128.47 47.768 127.446 48.792V71H120.47ZM169.054 71.64C165.811 71.64 163.379 70.7867 161.758 69.08C160.179 67.3307 159.39 64.9627 159.39 61.976V46.104H154.91V40.664H159.39V33.688L166.302 31.576V40.664H174.366L173.918 46.104H166.302V61.592C166.302 63.3413 166.707 64.5787 167.518 65.304C168.328 65.9867 169.651 66.328 171.486 66.328C172.638 66.328 173.854 66.1147 175.134 65.688V70.616C173.47 71.2987 171.443 71.64 169.054 71.64ZM179.19 71V65.56H185.078V71H179.19ZM204.195 82.264C201.934 82.264 199.672 82.1147 197.411 81.816C195.15 81.56 193.23 81.1547 191.651 80.6V75.224C193.358 75.7787 195.32 76.2053 197.539 76.504C199.758 76.8027 201.87 76.952 203.875 76.952C206.947 76.952 209.187 76.7813 210.595 76.44C212.003 76.0987 212.707 75.3307 212.707 74.136C212.707 73.24 212.366 72.6 211.683 72.216C211 71.8747 209.699 71.704 207.779 71.704H199.587C194.083 71.704 191.331 69.7627 191.331 65.88C191.331 64.6427 191.694 63.4907 192.419 62.424C193.144 61.3573 194.296 60.5467 195.875 59.992C194.126 59.1387 192.824 57.9653 191.971 56.472C191.16 54.9787 190.755 53.1867 190.755 51.096C190.755 47.2133 191.907 44.3973 194.211 42.648C196.558 40.8987 200.056 40.024 204.707 40.024C205.688 40.024 206.712 40.1093 207.779 40.28C208.846 40.408 209.678 40.536 210.275 40.664H221.411L221.219 45.208H216.099C216.91 45.8907 217.507 46.744 217.891 47.768C218.275 48.792 218.467 49.9013 218.467 51.096C218.467 54.3387 217.486 56.8987 215.523 58.776C213.56 60.6107 210.595 61.528 206.627 61.528C205.944 61.528 205.304 61.5067 204.707 61.464C204.152 61.3787 203.534 61.2933 202.851 61.208C201.571 61.336 200.419 61.6773 199.395 62.232C198.371 62.7867 197.859 63.5333 197.859 64.472C197.859 65.112 198.115 65.5813 198.627 65.88C199.139 66.136 199.992 66.264 201.187 66.264H209.699C212.728 66.264 215.054 66.9253 216.675 68.248C218.339 69.528 219.171 71.4053 219.171 73.88C219.171 76.8667 217.87 79 215.267 80.28C212.707 81.6027 209.016 82.264 204.195 82.264ZM204.707 57.112C207.48 57.112 209.4 56.6427 210.467 55.704C211.576 54.7653 212.131 53.1653 212.131 50.904C212.131 48.6427 211.576 47 210.467 45.976C209.4 44.952 207.48 44.44 204.707 44.44C202.104 44.44 200.206 44.9307 199.011 45.912C197.816 46.8933 197.219 48.5573 197.219 50.904C197.219 53.08 197.774 54.6587 198.883 55.64C200.035 56.6213 201.976 57.112 204.707 57.112ZM234.254 71.64C232.334 71.64 230.542 71.2987 228.878 70.616C227.257 69.9333 225.955 68.9093 224.974 67.544C223.993 66.136 223.502 64.408 223.502 62.36C223.502 59.4587 224.483 57.1333 226.446 55.384C228.451 53.592 231.523 52.696 235.662 52.696H245.39V51.352C245.39 49.9013 245.155 48.7493 244.686 47.896C244.259 47.0427 243.449 46.424 242.254 46.04C241.102 45.656 239.395 45.464 237.134 45.464C233.55 45.464 230.201 45.9973 227.086 47.064V41.88C228.451 41.3253 230.115 40.8773 232.078 40.536C234.041 40.1947 236.153 40.024 238.414 40.024C242.851 40.024 246.222 40.92 248.526 42.712C250.873 44.504 252.046 47.4267 252.046 51.48V71H246.094L245.646 67.928C244.409 69.1227 242.873 70.04 241.038 70.68C239.246 71.32 236.985 71.64 234.254 71.64ZM236.11 66.648C238.201 66.648 240.014 66.3067 241.55 65.624C243.129 64.8987 244.409 63.9387 245.39 62.744V57.432H235.79C233.742 57.432 232.249 57.8373 231.31 58.648C230.414 59.416 229.966 60.6107 229.966 62.232C229.966 63.8107 230.499 64.9413 231.566 65.624C232.633 66.3067 234.147 66.648 236.11 66.648ZM259.782 71V40.664H266.182L266.502 43.864C267.995 42.6693 269.638 41.7307 271.43 41.048C273.222 40.3653 275.142 40.024 277.19 40.024C279.366 40.024 281.051 40.3867 282.246 41.112C283.483 41.7947 284.422 42.7547 285.062 43.992C286.47 42.84 288.091 41.9013 289.926 41.176C291.761 40.408 293.958 40.024 296.518 40.024C300.017 40.024 302.598 40.92 304.262 42.712C305.926 44.504 306.758 47.256 306.758 50.968V71H299.91V51.672C299.91 49.3253 299.419 47.6827 298.438 46.744C297.457 45.8053 295.857 45.336 293.638 45.336C292.187 45.336 290.801 45.592 289.478 46.104C288.198 46.616 287.089 47.384 286.15 48.408C286.278 48.8773 286.363 49.368 286.406 49.88C286.449 50.392 286.47 50.9467 286.47 51.544V71H280.006V51.736C280.006 49.5173 279.622 47.896 278.854 46.872C278.086 45.848 276.635 45.336 274.502 45.336C273.009 45.336 271.579 45.6987 270.214 46.424C268.891 47.1067 267.697 47.9387 266.63 48.92V71H259.782ZM329.33 71.64C324.039 71.64 319.943 70.3387 317.042 67.736C314.14 65.1333 312.69 61.144 312.69 55.768C312.69 50.904 313.927 47.064 316.402 44.248C318.876 41.432 322.631 40.024 327.666 40.024C332.274 40.024 335.73 41.24 338.034 43.672C340.38 46.0613 341.554 49.1547 341.554 52.952V58.584H319.345C319.687 61.528 320.754 63.5547 322.546 64.664C324.338 65.7733 327.068 66.328 330.738 66.328C332.274 66.328 333.852 66.1787 335.474 65.88C337.095 65.5813 338.503 65.1973 339.698 64.728V69.848C338.332 70.4453 336.754 70.8933 334.962 71.192C333.212 71.4907 331.335 71.64 329.33 71.64ZM319.345 54.04H335.41V51.928C335.41 49.8373 334.834 48.216 333.682 47.064C332.53 45.8693 330.588 45.272 327.858 45.272C324.615 45.272 322.375 45.976 321.138 47.384C319.943 48.792 319.345 51.0107 319.345 54.04Z" fill="white"/>
</g>
<defs>
<clipPath id="clip0_2_2">
<rect width="366" height="96" fill="white"/>
</clipPath>
</defs>
</svg>
