<svg width="243" height="60" viewBox="0 0 243 60" fill="none" xmlns="http://www.w3.org/2000/svg">
<rect width="243" height="60" fill="white"/>
<path d="M29.6 23.16C32.24 23.16 34.36 24.08 35.96 25.92C37.5867 27.76 38.4 30.5333 38.4 34.24C38.4 36.6667 38.0267 38.72 37.28 40.4C36.56 42.0533 35.5333 43.3067 34.2 44.16C32.8933 44.9867 31.3467 45.4 29.56 45.4C28.4667 45.4 27.4933 45.2533 26.64 44.96C25.7867 44.6667 25.0533 44.2933 24.44 43.84C23.8533 43.36 23.3467 42.84 22.92 42.28H22.68C22.7333 42.7333 22.7867 43.3067 22.84 44C22.8933 44.6933 22.92 45.2933 22.92 45.8V54.6H19.4V23.56H22.28L22.76 26.48H22.92C23.3467 25.8667 23.8533 25.3067 24.44 24.8C25.0533 24.2933 25.7733 23.8933 26.6 23.6C27.4533 23.3067 28.4533 23.16 29.6 23.16ZM28.96 26.12C27.52 26.12 26.36 26.4 25.48 26.96C24.6 27.4933 23.96 28.3067 23.56 29.4C23.16 30.4933 22.9467 31.88 22.92 33.56V34.24C22.92 36 23.1067 37.4933 23.48 38.72C23.8533 39.9467 24.48 40.88 25.36 41.52C26.2667 42.16 27.4933 42.48 29.04 42.48C30.3467 42.48 31.4133 42.12 32.24 41.4C33.0933 40.68 33.72 39.7067 34.12 38.48C34.5467 37.2267 34.76 35.8 34.76 34.2C34.76 31.7467 34.28 29.7867 33.32 28.32C32.3867 26.8533 30.9333 26.12 28.96 26.12ZM62.6494 34.24C62.6494 36.0267 62.4094 37.6133 61.9294 39C61.476 40.36 60.8094 41.52 59.9294 42.48C59.076 43.44 58.0227 44.1733 56.7694 44.68C55.5427 45.16 54.1694 45.4 52.6494 45.4C51.236 45.4 49.9294 45.16 48.7294 44.68C47.5294 44.1733 46.4894 43.44 45.6094 42.48C44.7294 41.52 44.036 40.36 43.5294 39C43.0494 37.6133 42.8094 36.0267 42.8094 34.24C42.8094 31.8667 43.2094 29.8667 44.0094 28.24C44.8094 26.5867 45.956 25.3333 47.4494 24.48C48.9427 23.6 50.716 23.16 52.7694 23.16C54.716 23.16 56.4227 23.6 57.8894 24.48C59.3827 25.3333 60.5427 26.5867 61.3694 28.24C62.2227 29.8667 62.6494 31.8667 62.6494 34.24ZM46.4494 34.24C46.4494 35.92 46.6627 37.3867 47.0894 38.64C47.5427 39.8667 48.236 40.8133 49.1694 41.48C50.1027 42.1467 51.2894 42.48 52.7294 42.48C54.1694 42.48 55.356 42.1467 56.2894 41.48C57.2227 40.8133 57.9027 39.8667 58.3294 38.64C58.7827 37.3867 59.0094 35.92 59.0094 34.24C59.0094 32.5333 58.7827 31.08 58.3294 29.88C57.876 28.68 57.1827 27.76 56.2494 27.12C55.3427 26.4533 54.156 26.12 52.6894 26.12C50.5027 26.12 48.916 26.84 47.9294 28.28C46.9427 29.72 46.4494 31.7067 46.4494 34.24ZM71.7481 23.56V45H68.2281V23.56H71.7481ZM70.0281 15.52C70.5615 15.52 71.0281 15.7067 71.4281 16.08C71.8548 16.4267 72.0681 16.9867 72.0681 17.76C72.0681 18.5067 71.8548 19.0667 71.4281 19.44C71.0281 19.8133 70.5615 20 70.0281 20C69.4415 20 68.9481 19.8133 68.5481 19.44C68.1481 19.0667 67.9481 18.5067 67.9481 17.76C67.9481 16.9867 68.1481 16.4267 68.5481 16.08C68.9481 15.7067 69.4415 15.52 70.0281 15.52ZM88.8606 23.16C91.4206 23.16 93.354 23.7867 94.6606 25.04C95.9673 26.2667 96.6206 28.2667 96.6206 31.04V45H93.1406V31.28C93.1406 29.5467 92.754 28.2533 91.9806 27.4C91.2073 26.5467 89.994 26.12 88.3406 26.12C85.9673 26.12 84.3273 26.7867 83.4206 28.12C82.514 29.4533 82.0606 31.3733 82.0606 33.88V45H78.5406V23.56H81.3806L81.9006 26.48H82.1006C82.5806 25.7333 83.1673 25.12 83.8606 24.64C84.5806 24.1333 85.3673 23.76 86.2206 23.52C87.074 23.28 87.954 23.16 88.8606 23.16ZM110.427 42.52C110.961 42.52 111.507 42.48 112.067 42.4C112.627 42.2933 113.081 42.1867 113.427 42.08V44.76C113.054 44.9467 112.521 45.0933 111.827 45.2C111.134 45.3333 110.467 45.4 109.827 45.4C108.707 45.4 107.667 45.2133 106.707 44.84C105.774 44.44 105.014 43.76 104.427 42.8C103.841 41.84 103.547 40.4933 103.547 38.76V26.28H100.507V24.6L103.587 23.2L104.987 18.64H107.067V23.56H113.267V26.28H107.067V38.68C107.067 39.9867 107.374 40.96 107.987 41.6C108.627 42.2133 109.441 42.52 110.427 42.52ZM117.2 42.84C117.2 41.8533 117.44 41.16 117.92 40.76C118.4 40.36 118.974 40.16 119.64 40.16C120.334 40.16 120.92 40.36 121.4 40.76C121.907 41.16 122.16 41.8533 122.16 42.84C122.16 43.8 121.907 44.4933 121.4 44.92C120.92 45.3467 120.334 45.56 119.64 45.56C118.974 45.56 118.4 45.3467 117.92 44.92C117.44 44.4933 117.2 43.8 117.2 42.84ZM136.023 23.16C137.437 23.16 138.703 23.4267 139.823 23.96C140.97 24.4933 141.943 25.3067 142.743 26.4H142.943L143.423 23.56H146.223V45.36C146.223 47.3867 145.877 49.08 145.183 50.44C144.49 51.8267 143.437 52.8667 142.023 53.56C140.61 54.2533 138.81 54.6 136.623 54.6C135.077 54.6 133.65 54.48 132.343 54.24C131.063 54.0267 129.917 53.6933 128.903 53.24V50C129.597 50.3467 130.357 50.64 131.183 50.88C132.01 51.1467 132.903 51.3467 133.863 51.48C134.823 51.6133 135.81 51.68 136.823 51.68C138.663 51.68 140.103 51.1333 141.143 50.04C142.21 48.9733 142.743 47.5067 142.743 45.64V44.8C142.743 44.48 142.757 44.0267 142.783 43.44C142.81 42.8267 142.837 42.4 142.863 42.16H142.703C141.957 43.2533 141.023 44.0667 139.903 44.6C138.81 45.1333 137.53 45.4 136.063 45.4C133.29 45.4 131.117 44.4267 129.543 42.48C127.997 40.5333 127.223 37.8133 127.223 34.32C127.223 32.0267 127.57 30.0533 128.263 28.4C128.983 26.72 129.997 25.4267 131.303 24.52C132.61 23.6133 134.183 23.16 136.023 23.16ZM136.503 26.12C135.303 26.12 134.277 26.44 133.423 27.08C132.597 27.72 131.957 28.6533 131.503 29.88C131.077 31.1067 130.863 32.6 130.863 34.36C130.863 37 131.343 39.0267 132.303 40.44C133.29 41.8267 134.717 42.52 136.583 42.52C137.677 42.52 138.61 42.3867 139.383 42.12C140.157 41.8267 140.797 41.3867 141.303 40.8C141.81 40.1867 142.183 39.4133 142.423 38.48C142.663 37.5467 142.783 36.44 142.783 35.16V34.32C142.783 32.3733 142.557 30.8 142.103 29.6C141.677 28.4 140.997 27.52 140.063 26.96C139.13 26.4 137.943 26.12 136.503 26.12ZM161.153 23.2C163.766 23.2 165.699 23.7733 166.953 24.92C168.206 26.0667 168.833 27.8933 168.833 30.4V45H166.273L165.593 41.96H165.433C164.819 42.7333 164.179 43.3867 163.513 43.92C162.873 44.4267 162.126 44.8 161.273 45.04C160.446 45.28 159.433 45.4 158.233 45.4C156.953 45.4 155.793 45.1733 154.753 44.72C153.739 44.2667 152.939 43.5733 152.353 42.64C151.766 41.68 151.473 40.48 151.473 39.04C151.473 36.9067 152.313 35.2667 153.993 34.12C155.673 32.9467 158.259 32.3067 161.753 32.2L165.393 32.08V30.8C165.393 29.0133 165.006 27.7733 164.233 27.08C163.459 26.3867 162.366 26.04 160.953 26.04C159.833 26.04 158.766 26.2133 157.753 26.56C156.739 26.88 155.793 27.2533 154.913 27.68L153.833 25.04C154.766 24.5333 155.873 24.1067 157.153 23.76C158.433 23.3867 159.766 23.2 161.153 23.2ZM162.193 34.64C159.526 34.7467 157.673 35.1733 156.633 35.92C155.619 36.6667 155.113 37.72 155.113 39.08C155.113 40.28 155.473 41.16 156.193 41.72C156.939 42.28 157.886 42.56 159.033 42.56C160.846 42.56 162.353 42.0667 163.553 41.08C164.753 40.0667 165.353 38.52 165.353 36.44V34.52L162.193 34.64ZM198.975 23.16C201.401 23.16 203.215 23.7867 204.415 25.04C205.615 26.2667 206.215 28.2667 206.215 31.04V45H202.735V31.2C202.735 29.52 202.375 28.2533 201.655 27.4C200.961 26.5467 199.868 26.12 198.375 26.12C196.295 26.12 194.801 26.72 193.895 27.92C193.015 29.12 192.575 30.8667 192.575 33.16V45H189.095V31.2C189.095 30.08 188.935 29.1467 188.615 28.4C188.295 27.6267 187.815 27.0533 187.175 26.68C186.535 26.3067 185.708 26.12 184.695 26.12C183.255 26.12 182.121 26.4267 181.295 27.04C180.468 27.6267 179.868 28.4933 179.495 29.64C179.148 30.7867 178.975 32.2 178.975 33.88V45H175.455V23.56H178.295L178.815 26.48H179.015C179.468 25.7333 180.015 25.12 180.655 24.64C181.321 24.1333 182.055 23.76 182.855 23.52C183.655 23.28 184.481 23.16 185.335 23.16C186.988 23.16 188.361 23.4533 189.455 24.04C190.575 24.6267 191.388 25.5333 191.895 26.76H192.095C192.815 25.5333 193.788 24.6267 195.015 24.04C196.268 23.4533 197.588 23.16 198.975 23.16ZM221.118 23.16C222.958 23.16 224.531 23.56 225.838 24.36C227.171 25.16 228.184 26.2933 228.878 27.76C229.598 29.2 229.958 30.8933 229.958 32.84V34.96H215.278C215.331 37.3867 215.944 39.24 217.118 40.52C218.318 41.7733 219.984 42.4 222.118 42.4C223.478 42.4 224.678 42.28 225.718 42.04C226.784 41.7733 227.878 41.4 228.998 40.92V44C227.904 44.48 226.824 44.8267 225.758 45.04C224.691 45.28 223.424 45.4 221.958 45.4C219.931 45.4 218.131 44.9867 216.558 44.16C215.011 43.3333 213.798 42.1067 212.918 40.48C212.064 38.8267 211.638 36.8133 211.638 34.44C211.638 32.0933 212.024 30.08 212.798 28.4C213.598 26.72 214.704 25.4267 216.118 24.52C217.558 23.6133 219.224 23.16 221.118 23.16ZM221.078 26.04C219.398 26.04 218.064 26.5867 217.078 27.68C216.118 28.7467 215.544 30.24 215.358 32.16H226.278C226.278 30.9333 226.091 29.8667 225.718 28.96C225.344 28.0533 224.771 27.3467 223.998 26.84C223.251 26.3067 222.278 26.04 221.078 26.04Z" fill="#0C1350"/>
</svg>
