<svg width="626" height="113" viewBox="0 0 626 113" fill="none" xmlns="http://www.w3.org/2000/svg">
<path d="M0.0640001 112.648V24.328H12.096L12.864 30.344C15.5947 27.8693 18.5813 26.0347 21.824 24.84C25.0667 23.6453 28.9067 23.048 33.344 23.048C42.048 23.048 48.832 25.4373 53.696 30.216C58.56 34.9093 60.992 42.7173 60.992 53.64C60.992 64.5627 58.4747 72.7547 53.44 78.216C48.4053 83.592 41.536 86.28 32.832 86.28C25.4933 86.28 19.2213 84.5733 14.016 81.16V112.648H0.0640001ZM29.248 75.784C41.024 75.784 46.912 68.36 46.912 53.512C46.912 46.344 45.5893 41.2667 42.944 38.28C40.2987 35.208 35.8613 33.672 29.632 33.672C23.4027 33.672 18.1973 35.8053 14.016 40.072V70.408C15.9787 72.0293 18.1547 73.352 20.544 74.376C23.0187 75.3147 25.92 75.784 29.248 75.784ZM103.62 86.28C92.6973 86.28 84.676 83.5493 79.556 78.088C74.5213 72.6267 72.004 64.8187 72.004 54.664C72.004 44.5093 74.564 36.7013 79.684 31.24C84.804 25.7787 92.7827 23.048 103.62 23.048C114.543 23.048 122.564 25.7787 127.684 31.24C132.804 36.7013 135.364 44.5093 135.364 54.664C135.364 64.8187 132.804 72.6267 127.684 78.088C122.649 83.5493 114.628 86.28 103.62 86.28ZM103.62 74.504C110.02 74.504 114.543 72.968 117.188 69.896C119.919 66.7387 121.284 61.6613 121.284 54.664C121.284 47.6667 119.919 42.632 117.188 39.56C114.543 36.488 110.02 34.952 103.62 34.952C97.3053 34.952 92.7827 36.488 90.052 39.56C87.4067 42.632 86.084 47.6667 86.084 54.664C86.084 61.6613 87.4067 66.7387 90.052 69.896C92.7827 72.968 97.3053 74.504 103.62 74.504ZM151.559 11.656V0.135994H166.791V11.656H151.559ZM152.711 85V34.952H143.495L144.775 24.328H166.663V85H152.711ZM182.939 85V24.328H195.739L196.379 30.728C199.11 28.5947 202.352 26.8027 206.107 25.352C209.947 23.816 214.171 23.048 218.779 23.048C226.63 23.048 232.347 24.8827 235.931 28.552C239.515 32.2213 241.307 37.9387 241.307 45.704V85H227.483V46.344C227.483 41.6507 226.502 38.3653 224.539 36.488C222.662 34.6107 219.078 33.672 213.787 33.672C210.63 33.672 207.515 34.312 204.443 35.592C201.456 36.872 198.939 38.536 196.891 40.584V85H182.939ZM280.107 86.28C273.622 86.28 268.758 84.5733 265.515 81.16C262.358 77.6613 260.779 72.9253 260.779 66.952V35.208H251.819V24.328H260.779V10.376L274.603 6.15199V24.328H290.731L289.835 35.208H274.603V66.184C274.603 69.6827 275.414 72.1573 277.035 73.608C278.656 74.9733 281.302 75.656 284.971 75.656C287.275 75.656 289.707 75.2293 292.267 74.376V84.232C288.939 85.5973 284.886 86.28 280.107 86.28ZM300.379 85V74.12H312.155V85H300.379ZM350.39 107.528C345.867 107.528 341.345 107.229 336.822 106.632C332.299 106.12 328.459 105.309 325.302 104.2V93.448C328.715 94.5573 332.641 95.4107 337.078 96.008C341.515 96.6053 345.739 96.904 349.75 96.904C355.894 96.904 360.374 96.5627 363.19 95.88C366.006 95.1973 367.414 93.6613 367.414 91.272C367.414 89.48 366.731 88.2 365.366 87.432C364.001 86.7493 361.398 86.408 357.558 86.408H341.174C330.166 86.408 324.662 82.5253 324.662 74.76C324.662 72.2853 325.387 69.9813 326.838 67.848C328.289 65.7147 330.593 64.0933 333.75 62.984C330.251 61.2773 327.649 58.9307 325.942 55.944C324.321 52.9573 323.51 49.3733 323.51 45.192C323.51 37.4267 325.814 31.7947 330.422 28.296C335.115 24.7973 342.113 23.048 351.414 23.048C353.377 23.048 355.425 23.2187 357.558 23.56C359.691 23.816 361.355 24.072 362.55 24.328H384.822L384.438 33.416H374.198C375.819 34.7813 377.014 36.488 377.782 38.536C378.55 40.584 378.934 42.8027 378.934 45.192C378.934 51.6773 376.971 56.7973 373.046 60.552C369.121 64.2213 363.19 66.056 355.254 66.056C353.889 66.056 352.609 66.0133 351.414 65.928C350.305 65.7573 349.067 65.5867 347.702 65.416C345.142 65.672 342.838 66.3547 340.79 67.464C338.742 68.5733 337.718 70.0667 337.718 71.944C337.718 73.224 338.23 74.1627 339.254 74.76C340.278 75.272 341.985 75.528 344.374 75.528H361.398C367.457 75.528 372.107 76.8507 375.35 79.496C378.678 82.056 380.342 85.8107 380.342 90.76C380.342 96.7333 377.739 101 372.534 103.56C367.414 106.205 360.033 107.528 350.39 107.528ZM351.414 57.224C356.961 57.224 360.801 56.2853 362.934 54.408C365.153 52.5307 366.262 49.3307 366.262 44.808C366.262 40.2853 365.153 37 362.934 34.952C360.801 32.904 356.961 31.88 351.414 31.88C346.209 31.88 342.411 32.8613 340.022 34.824C337.633 36.7867 336.438 40.1147 336.438 44.808C336.438 49.16 337.547 52.3173 339.766 54.28C342.07 56.2427 345.953 57.224 351.414 57.224ZM410.508 86.28C406.668 86.28 403.084 85.5973 399.756 84.232C396.513 82.8667 393.911 80.8187 391.948 78.088C389.985 75.272 389.004 71.816 389.004 67.72C389.004 61.9173 390.967 57.2667 394.892 53.768C398.903 50.184 405.047 48.392 413.324 48.392H432.78V45.704C432.78 42.8027 432.311 40.4987 431.372 38.792C430.519 37.0853 428.897 35.848 426.508 35.08C424.204 34.312 420.791 33.928 416.268 33.928C409.1 33.928 402.401 34.9947 396.172 37.128V26.76C398.903 25.6507 402.231 24.7547 406.156 24.072C410.081 23.3893 414.305 23.048 418.828 23.048C427.703 23.048 434.444 24.84 439.052 28.424C443.745 32.008 446.092 37.8533 446.092 45.96V85H434.188L433.292 78.856C430.817 81.2453 427.745 83.08 424.076 84.36C420.492 85.64 415.969 86.28 410.508 86.28ZM414.22 76.296C418.401 76.296 422.028 75.6133 425.1 74.248C428.257 72.7973 430.817 70.8773 432.78 68.488V57.864H413.58C409.484 57.864 406.497 58.6747 404.62 60.296C402.828 61.832 401.932 64.2213 401.932 67.464C401.932 70.6213 402.999 72.8827 405.132 74.248C407.265 75.6133 410.295 76.296 414.22 76.296ZM461.564 85V24.328H474.364L475.004 30.728C477.991 28.3387 481.276 26.4613 484.86 25.096C488.444 23.7307 492.284 23.048 496.38 23.048C500.732 23.048 504.103 23.7733 506.492 25.224C508.967 26.5893 510.844 28.5093 512.124 30.984C514.94 28.68 518.183 26.8027 521.852 25.352C525.521 23.816 529.916 23.048 535.036 23.048C542.033 23.048 547.196 24.84 550.524 28.424C553.852 32.008 555.516 37.512 555.516 44.936V85H541.82V46.344C541.82 41.6507 540.839 38.3653 538.876 36.488C536.913 34.6107 533.713 33.672 529.276 33.672C526.375 33.672 523.601 34.184 520.956 35.208C518.396 36.232 516.177 37.768 514.3 39.816C514.556 40.7547 514.727 41.736 514.812 42.76C514.897 43.784 514.94 44.8933 514.94 46.088V85H502.012V46.472C502.012 42.0347 501.244 38.792 499.708 36.744C498.172 34.696 495.271 33.672 491.004 33.672C488.017 33.672 485.159 34.3973 482.428 35.848C479.783 37.2133 477.393 38.8773 475.26 40.84V85H461.564ZM600.659 86.28C590.078 86.28 581.886 83.6773 576.083 78.472C570.28 73.2667 567.379 65.288 567.379 54.536C567.379 44.808 569.854 37.128 574.803 31.496C579.752 25.864 587.262 23.048 597.331 23.048C606.547 23.048 613.459 25.48 618.067 30.344C622.76 35.1227 625.107 41.3093 625.107 48.904V60.168H580.691C581.374 66.056 583.507 70.1093 587.091 72.328C590.675 74.5467 596.136 75.656 603.475 75.656C606.547 75.656 609.704 75.3573 612.947 74.76C616.19 74.1627 619.006 73.3947 621.395 72.456V82.696C618.664 83.8907 615.507 84.7867 611.923 85.384C608.424 85.9813 604.67 86.28 600.659 86.28ZM580.691 51.08H612.819V46.856C612.819 42.6747 611.667 39.432 609.363 37.128C607.059 34.7387 603.176 33.544 597.715 33.544C591.23 33.544 586.75 34.952 584.275 37.768C581.886 40.584 580.691 45.0213 580.691 51.08Z" fill="#0E0D3A"/>
</svg>
