<svg width="1222" height="220" viewBox="0 0 1222 220" fill="none" xmlns="http://www.w3.org/2000/svg">
<path d="M0.75 220V47.5H24.25L25.75 59.25C31.0833 54.4167 36.9167 50.8333 43.25 48.5C49.5833 46.1667 57.0833 45 65.75 45C82.75 45 96 49.6667 105.5 59C115 68.1667 119.75 83.4167 119.75 104.75C119.75 126.083 114.833 142.083 105 152.75C95.1667 163.25 81.75 168.5 64.75 168.5C50.4167 168.5 38.1667 165.167 28 158.5V220H0.75ZM57.75 148C80.75 148 92.25 133.5 92.25 104.5C92.25 90.5 89.6667 80.5833 84.5 74.75C79.3333 68.75 70.6667 65.75 58.5 65.75C46.3333 65.75 36.1667 69.9167 28 78.25V137.5C31.8333 140.667 36.0833 143.25 40.75 145.25C45.5833 147.083 51.25 148 57.75 148ZM203.008 168.5C181.674 168.5 166.008 163.167 156.008 152.5C146.174 141.833 141.258 126.583 141.258 106.75C141.258 86.9167 146.258 71.6667 156.258 61C166.258 50.3333 181.841 45 203.008 45C224.341 45 240.008 50.3333 250.008 61C260.008 71.6667 265.008 86.9167 265.008 106.75C265.008 126.583 260.008 141.833 250.008 152.5C240.174 163.167 224.508 168.5 203.008 168.5ZM203.008 145.5C215.508 145.5 224.341 142.5 229.508 136.5C234.841 130.333 237.508 120.417 237.508 106.75C237.508 93.0833 234.841 83.25 229.508 77.25C224.341 71.25 215.508 68.25 203.008 68.25C190.674 68.25 181.841 71.25 176.508 77.25C171.341 83.25 168.758 93.0833 168.758 106.75C168.758 120.417 171.341 130.333 176.508 136.5C181.841 142.5 190.674 145.5 203.008 145.5ZM296.639 22.75V0.249988H326.389V22.75H296.639ZM298.889 166V68.25H280.889L283.389 47.5H326.139V166H298.889ZM357.928 166V47.5H382.928L384.178 60C389.511 55.8333 395.844 52.3333 403.178 49.5C410.678 46.5 418.928 45 427.928 45C443.261 45 454.428 48.5833 461.428 55.75C468.428 62.9167 471.928 74.0833 471.928 89.25V166H444.928V90.5C444.928 81.3333 443.011 74.9167 439.178 71.25C435.511 67.5833 428.511 65.75 418.178 65.75C412.011 65.75 405.928 67 399.928 69.5C394.094 72 389.178 75.25 385.178 79.25V166H357.928ZM547.709 168.5C535.042 168.5 525.542 165.167 519.209 158.5C513.042 151.667 509.959 142.417 509.959 130.75V68.75H492.459V47.5H509.959V20.25L536.959 12V47.5H568.459L566.709 68.75H536.959V129.25C536.959 136.083 538.542 140.917 541.709 143.75C544.876 146.417 550.042 147.75 557.209 147.75C561.709 147.75 566.459 146.917 571.459 145.25V164.5C564.959 167.167 557.042 168.5 547.709 168.5ZM587.303 166V144.75H610.303V166H587.303ZM684.98 210C676.147 210 667.314 209.417 658.48 208.25C649.647 207.25 642.147 205.667 635.98 203.5V182.5C642.647 184.667 650.314 186.333 658.98 187.5C667.647 188.667 675.897 189.25 683.73 189.25C695.73 189.25 704.48 188.583 709.98 187.25C715.48 185.917 718.23 182.917 718.23 178.25C718.23 174.75 716.897 172.25 714.23 170.75C711.564 169.417 706.48 168.75 698.98 168.75H666.98C645.48 168.75 634.73 161.167 634.73 146C634.73 141.167 636.147 136.667 638.98 132.5C641.814 128.333 646.314 125.167 652.48 123C645.647 119.667 640.564 115.083 637.23 109.25C634.064 103.417 632.48 96.4167 632.48 88.25C632.48 73.0833 636.98 62.0833 645.98 55.25C655.147 48.4167 668.814 45 686.98 45C690.814 45 694.814 45.3333 698.98 46C703.147 46.5 706.397 47 708.73 47.5H752.23L751.48 65.25H731.48C734.647 67.9167 736.98 71.25 738.48 75.25C739.98 79.25 740.73 83.5833 740.73 88.25C740.73 100.917 736.897 110.917 729.23 118.25C721.564 125.417 709.98 129 694.48 129C691.814 129 689.314 128.917 686.98 128.75C684.814 128.417 682.397 128.083 679.73 127.75C674.73 128.25 670.23 129.583 666.23 131.75C662.23 133.917 660.23 136.833 660.23 140.5C660.23 143 661.23 144.833 663.23 146C665.23 147 668.564 147.5 673.23 147.5H706.48C718.314 147.5 727.397 150.083 733.73 155.25C740.23 160.25 743.48 167.583 743.48 177.25C743.48 188.917 738.397 197.25 728.23 202.25C718.23 207.417 703.814 210 684.98 210ZM686.98 111.75C697.814 111.75 705.314 109.917 709.48 106.25C713.814 102.583 715.98 96.3333 715.98 87.5C715.98 78.6667 713.814 72.25 709.48 68.25C705.314 64.25 697.814 62.25 686.98 62.25C676.814 62.25 669.397 64.1667 664.73 68C660.064 71.8333 657.73 78.3333 657.73 87.5C657.73 96 659.897 102.167 664.23 106C668.73 109.833 676.314 111.75 686.98 111.75ZM802.398 168.5C794.898 168.5 787.898 167.167 781.398 164.5C775.065 161.833 769.982 157.833 766.148 152.5C762.315 147 760.398 140.25 760.398 132.25C760.398 120.917 764.232 111.833 771.898 105C779.732 98 791.732 94.5 807.898 94.5H845.898V89.25C845.898 83.5833 844.982 79.0833 843.148 75.75C841.482 72.4167 838.315 70 833.648 68.5C829.148 67 822.482 66.25 813.648 66.25C799.648 66.25 786.565 68.3333 774.398 72.5V52.25C779.732 50.0833 786.232 48.3333 793.898 47C801.565 45.6667 809.815 45 818.648 45C835.982 45 849.148 48.5 858.148 55.5C867.315 62.5 871.898 73.9167 871.898 89.75V166H848.648L846.898 154C842.065 158.667 836.065 162.25 828.898 164.75C821.898 167.25 813.065 168.5 802.398 168.5ZM809.648 149C817.815 149 824.898 147.667 830.898 145C837.065 142.167 842.065 138.417 845.898 133.75V113H808.398C800.398 113 794.565 114.583 790.898 117.75C787.398 120.75 785.648 125.417 785.648 131.75C785.648 137.917 787.732 142.333 791.898 145C796.065 147.667 801.982 149 809.648 149ZM902.117 166V47.5H927.117L928.367 60C934.201 55.3333 940.617 51.6667 947.617 49C954.617 46.3333 962.117 45 970.117 45C978.617 45 985.201 46.4167 989.867 49.25C994.701 51.9167 998.367 55.6667 1000.87 60.5C1006.37 56 1012.7 52.3333 1019.87 49.5C1027.03 46.5 1035.62 45 1045.62 45C1059.28 45 1069.37 48.5 1075.87 55.5C1082.37 62.5 1085.62 73.25 1085.62 87.75V166H1058.87V90.5C1058.87 81.3333 1056.95 74.9167 1053.12 71.25C1049.28 67.5833 1043.03 65.75 1034.37 65.75C1028.7 65.75 1023.28 66.75 1018.12 68.75C1013.12 70.75 1008.78 73.75 1005.12 77.75C1005.62 79.5833 1005.95 81.5 1006.12 83.5C1006.28 85.5 1006.37 87.6667 1006.37 90V166H981.117V90.75C981.117 82.0833 979.617 75.75 976.617 71.75C973.617 67.75 967.951 65.75 959.617 65.75C953.784 65.75 948.201 67.1667 942.867 70C937.701 72.6667 933.034 75.9167 928.867 79.75V166H902.117ZM1173.79 168.5C1153.12 168.5 1137.12 163.417 1125.79 153.25C1114.45 143.083 1108.79 127.5 1108.79 106.5C1108.79 87.5 1113.62 72.5 1123.29 61.5C1132.95 50.5 1147.62 45 1167.29 45C1185.29 45 1198.79 49.75 1207.79 59.25C1216.95 68.5833 1221.54 80.6667 1221.54 95.5V117.5H1134.79C1136.12 129 1140.29 136.917 1147.29 141.25C1154.29 145.583 1164.95 147.75 1179.29 147.75C1185.29 147.75 1191.45 147.167 1197.79 146C1204.12 144.833 1209.62 143.333 1214.29 141.5V161.5C1208.95 163.833 1202.79 165.583 1195.79 166.75C1188.95 167.917 1181.62 168.5 1173.79 168.5ZM1134.79 99.75H1197.54V91.5C1197.54 83.3333 1195.29 77 1190.79 72.5C1186.29 67.8333 1178.7 65.5 1168.04 65.5C1155.37 65.5 1146.62 68.25 1141.79 73.75C1137.12 79.25 1134.79 87.9167 1134.79 99.75Z" fill="#0E0D3A"/>
</svg>
